#N canvas 331 45 974 745 10;
#X obj 72 109 gemhead;
#X obj 77 566 pix_texture;
#X obj 35 231 pix_add;
#X obj 85 204 pix_delay;
#X obj 77 436 pix_normalize;
#X obj 77 313 pix_lumaoffset;
#X floatatom 146 360 5 0 0 0 - - -;
#X obj 77 347 pix_add;
#X floatatom 117 291 5 0 0 0 - - -;
#X floatatom 158 291 5 0 0 0 - - -;
#X text 113 275 offset;
#X text 160 274 gap;
#X obj 155 232 tgl 15 0 empty empty empty 0 -6 0 8 -262144 -1 -1 1
1;
#X msg 155 250 smooth \$1;
#X msg 87 249 fill \$1;
#X obj 87 231 tgl 15 0 empty empty empty 0 -6 0 8 -262144 -1 -1 63.8382
63.8382;
#X obj 561 6 adc~;
#X obj 535 692 dac~;
#X obj 571 608 tgl 15 0 empty empty empty 17 7 0 10 -262144 -1 -1 1
1;
#X obj 543 633 *~ \$1;
#X msg 453 371 time \$1;
#X msg 518 372 timeVariation \$1;
#X msg 634 370 filterFreq \$1;
#X msg 737 371 feedback \$1;
#X msg 372 370 density \$1;
#X msg 820 374 grainSize \$1;
#X obj 372 259 vsl 15 100 0 200 0 0 empty empty empty 0 -9 0 10 -258113
-1 -1 3900 1;
#X obj 452 262 vsl 15 100 1 1000 0 0 empty empty empty 0 -9 0 10 -4032
-1 -1 3000 1;
#X obj 518 263 vsl 15 100 0 100 0 0 empty empty empty 0 -9 0 10 -262144
-1 -1 3800 1;
#X obj 633 262 vsl 15 100 20 20000 0 0 empty empty empty 0 -9 0 10
-262144 -1 -1 9900 1;
#X obj 737 262 vsl 15 100 0 200 0 0 empty empty empty 0 -9 0 10 -159808
-1 -1 4600 1;
#X obj 819 262 vsl 15 100 0 50 0 0 empty empty empty 0 -9 0 10 -260097
-1 -1 1000 1;
#X obj 306 40 fiddle~ 1024 1 20 3;
#X obj 543 654 *~ \$1;
#X obj 594 628 hsl 75 15 0 1 0 0 empty empty empty -2 -8 0 10 -4034
-1 -1 4200 1;
#X text 608 605 volume;
#X obj 542 536 freeverb~;
#X msg 390 431 roomsize \$1;
#X msg 390 453 damping \$1;
#X msg 390 475 width \$1;
#X msg 390 497 wet \$1;
#X msg 390 519 dry \$1;
#X floatatom 319 389 5 0 0 0 - - -;
#X obj 319 409 / 100;
#X floatatom 281 411 5 0 0 0 - - -;
#X obj 281 431 / 100;
#X floatatom 322 432 5 0 0 0 - - -;
#X obj 322 452 / 100;
#X floatatom 280 453 5 0 0 0 - - -;
#X obj 280 473 / 100;
#X floatatom 320 474 5 0 0 0 - - -;
#X obj 320 494 / 100;
#X obj 546 424 +bubbler~;
#X text 354 310 ->;
#X text 435 321 ->;
#X text 501 314 ->;
#X text 612 254 ->;
#X text 722 304 ->;
#X text 804 341 ->;
#X text 318 372 50;
#X text 279 397 96;
#X text 356 432 94;
#X text 263 451 37;
#X text 354 474 56;
#X obj 389 66 moses;
#X floatatom 434 50 5 0 0 0 - - -;
#X msg 389 96 0;
#X text 422 73 <- consider trigger;
#X obj 77 407 pix_gain;
#X obj 146 385 / 70;
#X text 466 51 threshold 50 to 70??;
#X text 450 50 comment;
#X floatatom 646 472 5 0 1 2 ratio[0-1] - -;
#X floatatom 723 478 5 1 32 2 bits[1-32] - -;
#X text 647 501 bit crushing -- necessary?;
#X text 759 479 8 - 10;
#X obj -16 678 cnv 15 100 60 empty empty empty 20 12 0 14 -257985 -66577
0;
#X text -15 720 dan friedman;
#X obj 177 26 tgl 15 0 empty empty empty 17 7 0 10 -262144 -1 -1 1
1;
#X msg 177 46 fullscreen \$1;
#X msg 185 67 create \, 1;
#X msg 251 67 destroy;
#X obj 1 46 loadbang;
#X msg 1 68 dimen 1440 900;
#X obj 177 97 gemwin;
#X obj 544 502 decimate~;
#X obj 77 594 rectangle 8 6;
#N canvas 438 449 450 300 fm_synth_classic 0;
#X obj 181 258 outlet~;
#X obj 51 16 inlet~;
#X text 92 16 freq;
#X obj 191 203 osc~;
#X obj 205 93 osc~;
#X obj 247 92 inlet;
#X text 286 92 mod index;
#X obj 221 114 *~;
#X obj 144 25 inlet;
#X obj 107 71 *~;
#X obj 227 24 inlet;
#X text 220 8 modulator;
#X obj 205 74 *~;
#X obj 191 228 *~ 0.5;
#X obj 249 200 inlet;
#X text 283 199 amplitude;
#X text 135 9 carrier;
#X obj 191 172 *~;
#X obj 221 137 +~ 1;
#X connect 1 0 9 0;
#X connect 1 0 12 0;
#X connect 3 0 13 0;
#X connect 4 0 7 0;
#X connect 5 0 7 1;
#X connect 7 0 18 0;
#X connect 8 0 9 1;
#X connect 9 0 17 0;
#X connect 10 0 12 1;
#X connect 12 0 4 0;
#X connect 13 0 0 0;
#X connect 14 0 13 1;
#X connect 17 0 3 0;
#X connect 18 0 17 1;
#X restore 633 174 pd fm_synth_classic;
#X floatatom 603 143 5 0 0 0 - - -;
#X floatatom 740 88 5 0 0 0 - - -;
#X floatatom 740 128 5 0 0 0 - - -;
#X floatatom 652 145 5 0 0 0 - - -;
#X floatatom 682 125 5 0 0 0 - - -;
#X floatatom 707 150 5 0 0 0 - - -;
#X obj 740 107 / 300;
#X text 777 107 <----;
#X text 418 95 < - maybe send to synth amp.;
#X text 741 149 < - high;
#X obj 682 81 * 2;
#X obj 682 101 int;
#X obj 72 131 pix_video 1;
#X text 274 367 *****;
#X text 274 360 *****;
#X text 274 381 *****;
#X text 274 374 *****;
#X msg 95 67 offset 0 0;
#X obj 24 204 pix_delay;
#X msg 1 468 horizontal;
#X obj 77 485 pix_flip;
#X obj 404 123 / 10;
#X msg 136 174 3;
#X connect 0 0 100 0;
#X connect 1 0 86 0;
#X connect 2 0 5 0;
#X connect 3 0 2 1;
#X connect 4 0 108 0;
#X connect 5 0 7 0;
#X connect 6 0 69 0;
#X connect 7 0 68 0;
#X connect 8 0 5 1;
#X connect 9 0 5 2;
#X connect 12 0 13 0;
#X connect 13 0 5 0;
#X connect 14 0 5 0;
#X connect 15 0 14 0;
#X connect 16 0 32 0;
#X connect 16 0 52 0;
#X connect 16 1 32 0;
#X connect 16 1 52 0;
#X connect 18 0 19 1;
#X connect 19 0 33 0;
#X connect 20 0 52 0;
#X connect 21 0 52 0;
#X connect 22 0 52 0;
#X connect 23 0 52 0;
#X connect 24 0 52 0;
#X connect 25 0 52 0;
#X connect 26 0 24 0;
#X connect 27 0 20 0;
#X connect 28 0 21 0;
#X connect 29 0 22 0;
#X connect 30 0 23 0;
#X connect 31 0 25 0;
#X connect 32 2 88 0;
#X connect 32 2 98 0;
#X connect 32 3 64 0;
#X connect 33 0 17 0;
#X connect 33 0 17 1;
#X connect 34 0 33 1;
#X connect 36 0 19 0;
#X connect 36 1 19 0;
#X connect 37 0 36 0;
#X connect 38 0 36 0;
#X connect 39 0 36 0;
#X connect 40 0 36 0;
#X connect 41 0 36 0;
#X connect 42 0 43 0;
#X connect 43 0 37 0;
#X connect 44 0 45 0;
#X connect 45 0 38 0;
#X connect 46 0 47 0;
#X connect 47 0 39 0;
#X connect 48 0 49 0;
#X connect 49 0 40 0;
#X connect 50 0 51 0;
#X connect 51 0 41 0;
#X connect 52 0 85 0;
#X connect 64 0 66 0;
#X connect 64 1 8 0;
#X connect 64 1 6 0;
#X connect 64 1 89 0;
#X connect 64 1 109 0;
#X connect 64 1 15 0;
#X connect 65 0 64 1;
#X connect 66 0 8 0;
#X connect 66 0 9 0;
#X connect 66 0 87 4;
#X connect 68 0 4 0;
#X connect 69 0 68 1;
#X connect 72 0 85 1;
#X connect 73 0 85 2;
#X connect 78 0 79 0;
#X connect 79 0 84 0;
#X connect 80 0 84 0;
#X connect 81 0 84 0;
#X connect 82 0 105 0;
#X connect 82 0 83 0;
#X connect 82 0 107 0;
#X connect 82 0 110 0;
#X connect 83 0 84 0;
#X connect 85 0 36 0;
#X connect 85 0 36 1;
#X connect 87 0 36 0;
#X connect 87 0 36 1;
#X connect 88 0 87 0;
#X connect 89 0 94 0;
#X connect 90 0 87 4;
#X connect 91 0 87 1;
#X connect 92 0 87 2;
#X connect 93 0 87 3;
#X connect 94 0 90 0;
#X connect 98 0 99 0;
#X connect 99 0 92 0;
#X connect 100 0 106 0;
#X connect 100 0 3 0;
#X connect 105 0 84 0;
#X connect 106 0 2 0;
#X connect 107 0 108 0;
#X connect 108 0 1 0;
#X connect 109 0 9 0;
#X connect 110 0 3 1;
